<?xml version="1.0" encoding="UTF-8"?>
<svg version="1.1" xmlns="http://www.w3.org/2000/svg" width="300" height="300">
<path d="M0 0 C99 0 198 0 300 0 C300 99 300 198 300 300 C201 300 102 300 0 300 C0 201 0 102 0 0 Z " fill="#FEFEFE" transform="translate(0,0)"/>
<path d="M0 0 C1.8871875 0.0309375 1.8871875 0.0309375 3.8125 0.0625 C3.8125 1.0525 3.8125 2.0425 3.8125 3.0625 C4.58941476 3.05458089 5.36632952 3.04666178 6.16678715 3.03850269 C25.07932999 2.8467795 43.99196013 2.67196253 62.90483189 2.51591206 C72.05099209 2.44004011 81.19703481 2.35846752 90.34301758 2.26342773 C98.31556076 2.18059617 106.28811669 2.10850842 114.26087135 2.04926747 C118.48157529 2.01753206 122.70207837 1.98045426 126.92260933 1.93050575 C130.89762299 1.88363273 134.87249789 1.8511601 138.84772682 1.8295784 C140.30419905 1.81916045 141.76064515 1.80354754 143.21699905 1.78225899 C157.02910067 1.58583268 157.02910067 1.58583268 162.8125 5.0625 C168.26115703 10.82675216 168.49876073 19.02101371 169.61523438 26.56054688 C170.14409221 29.55126556 170.65748823 32.2516717 171.8125 35.0625 C175.27935395 36.78943047 175.27935395 36.78943047 178.8125 38.0625 C180.31231393 40.85963938 180.75376671 43.76215347 181.25 46.875 C181.48227295 48.144646 181.48227295 48.144646 181.71923828 49.43994141 C184.90712956 68.14717938 184.90712956 68.14717938 180.8125 76.0625 C172.76192551 82.24602727 164.312313 82.89104695 154.515625 82.6484375 C152.54345001 82.63570297 152.54345001 82.63570297 150.53143311 82.62271118 C147.07849431 82.60007744 143.62713147 82.54138819 140.17480469 82.4744873 C136.63498237 82.41250359 133.094899 82.38557819 129.5546875 82.35546875 C122.63998791 82.29160894 115.72632012 82.18955203 108.8125 82.0625 C109.09677353 82.70981583 109.38104706 83.35713165 109.67393494 84.02406311 C110.9817208 87.00584546 112.28580093 89.98923514 113.58984375 92.97265625 C114.03694702 93.99057251 114.48405029 95.00848877 114.94470215 96.05725098 C118.59171911 104.41214416 121.79799403 112.86863257 124.86474609 121.44921875 C127.13401323 127.70636337 129.51895725 133.92172998 131.88110352 140.14428711 C132.24776123 141.1163208 132.61441895 142.08835449 132.9921875 143.08984375 C133.31944824 143.95343506 133.64670898 144.81702637 133.98388672 145.70678711 C136.1615597 151.89782028 136.72027189 157.42996151 134.5625 163.6875 C133.985 164.80125 133.4075 165.915 132.8125 167.0625 C132.296875 168.073125 131.78125 169.08375 131.25 170.125 C127.76866285 174.32045759 123.59592106 176.54842288 118.8125 179.0625 C118.17699219 179.40667969 117.54148438 179.75085938 116.88671875 180.10546875 C112.31922325 182.34196655 108.77462876 182.70277468 103.8125 182.0625 C99.84098374 179.06179883 97.51541692 175.72311472 95.8125 171.0625 C95.06488639 165.27617548 95.73302402 162.01643963 98.8125 157.0625 C98.77329045 150.73015768 94.90209 146.1686454 91.5 141.125 C87.48990327 135.09602699 83.73122015 129.13093388 80.63671875 122.57421875 C80.13760986 121.5267749 79.63850098 120.47933105 79.12426758 119.40014648 C78.18628179 117.38439352 77.2844077 115.35132786 76.42456055 113.30102539 C75.09697805 110.47256811 73.97290102 108.32534839 71.8125 106.0625 C67.82222689 104.62885284 64.01855552 104.32423612 59.8125 104.0625 C57.57373047 103.71972656 57.57373047 103.71972656 55.8125 103.0625 C52.54315468 98.40615969 50.96908011 93.77330935 49.5234375 88.296875 C48.84706971 85.81502153 48.84706971 85.81502153 46.8125 83.0625 C44.26670623 82.72447325 41.95100914 82.5737053 39.3984375 82.55078125 C38.66879791 82.53283005 37.93915833 82.51487885 37.18740845 82.49638367 C34.85416465 82.44214868 32.52112686 82.40834438 30.1875 82.375 C28.60674208 82.34183838 27.02601139 82.3073498 25.4453125 82.27148438 C21.56785674 82.18641533 17.69046345 82.11966822 13.8125 82.0625 C13.83344727 83.11002441 13.85439453 84.15754883 13.87597656 85.23681641 C13.94938167 89.19158797 13.9946576 93.14630188 14.03222656 97.1015625 C14.05211663 98.80055934 14.0792388 100.49948984 14.11425781 102.19824219 C14.40556381 116.71213497 13.06887928 130.53557971 4.8125 143.0625 C-1.56421135 147.3136409 -11.83317182 145.33536449 -19.1875 144.0625 C-21.03404409 142.21595591 -20.53725588 139.20448534 -20.6875 136.71875 C-20.77 135.4090625 -20.8525 134.099375 -20.9375 132.75 C-21.02114433 131.35418527 -21.10447536 129.95835173 -21.1875 128.5625 C-21.72484646 118.5725225 -21.72484646 118.5725225 -22.734375 108.625 C-23.48252532 102.37470478 -23.41100363 96.06538472 -23.42773438 89.77880859 C-23.43748015 87.56700578 -23.46860909 85.35611881 -23.5 83.14453125 C-23.55621465 75.65365213 -23.30474545 69.00519546 -20.1875 62.0625 C-19.80207031 61.05058594 -19.41664062 60.03867188 -19.01953125 58.99609375 C-18.68308594 58.17238281 -18.34664062 57.34867188 -18 56.5 C-17.48373047 55.22962891 -17.48373047 55.22962891 -16.95703125 53.93359375 C-16.57611328 53.00740234 -16.57611328 53.00740234 -16.1875 52.0625 C-18.1675 52.0625 -20.1475 52.0625 -22.1875 52.0625 C-23.3452506 48.58924819 -23.25616652 45.70182552 -23.1875 42.0625 C-22.5275 42.0625 -21.8675 42.0625 -21.1875 42.0625 C-21.3421875 40.4846875 -21.3421875 40.4846875 -21.5 38.875 C-21.51539229 30.193751 -16.57629187 21.6910252 -13.02734375 13.9375 C-12.31114699 12.3385491 -11.67767606 10.7029695 -11.0625 9.0625 C-10.1875 7.0625 -10.1875 7.0625 -8.1875 6.0625 C-7.53194881 3.53516765 -7.53194881 3.53516765 -7.1875 1.0625 C-4.43671116 0.14557039 -2.82801087 -0.04636083 0 0 Z " fill="#6A6967" transform="translate(70.1875,67.9375)"/>
<path d="M0 0 C1.8871875 0.0309375 1.8871875 0.0309375 3.8125 0.0625 C3.8125 1.0525 3.8125 2.0425 3.8125 3.0625 C4.58941476 3.05458089 5.36632952 3.04666178 6.16678715 3.03850269 C25.07932999 2.8467795 43.99196013 2.67196253 62.90483189 2.51591206 C72.05099209 2.44004011 81.19703481 2.35846752 90.34301758 2.26342773 C98.31556076 2.18059617 106.28811669 2.10850842 114.26087135 2.04926747 C118.48157529 2.01753206 122.70207837 1.98045426 126.92260933 1.93050575 C130.89762299 1.88363273 134.87249789 1.8511601 138.84772682 1.8295784 C140.30419905 1.81916045 141.76064515 1.80354754 143.21699905 1.78225899 C157.02336521 1.58591425 157.02336521 1.58591425 162.8125 5.0625 C167.77434315 10.28099021 168.32684864 17.0520465 169.5625 23.9375 C169.78292969 25.1028125 170.00335938 26.268125 170.23046875 27.46875 C170.77012499 30.33127438 171.29702011 33.19554084 171.8125 36.0625 C170.8225 36.5575 170.8225 36.5575 169.8125 37.0625 C169.8125 36.0725 169.8125 35.0825 169.8125 34.0625 C167.43820704 33.81180087 167.43820704 33.81180087 164.8125 34.0625 C163.16655861 35.45838754 163.16655861 35.45838754 161.8125 37.0625 C158.36391742 38.21202753 155.64159118 38.2225646 152.00219727 38.26782227 C151.30597165 38.27771903 150.60974604 38.2876158 149.89242268 38.29781246 C147.55461884 38.32966462 145.21679783 38.35439703 142.87890625 38.37890625 C141.20557282 38.39964191 139.53224319 38.42068611 137.85891724 38.4420166 C133.31221358 38.49829001 128.7654586 38.54753457 124.21865463 38.59492874 C121.38221241 38.62492373 118.54579688 38.65678528 115.7093811 38.68917847 C73.74406631 39.16464115 31.7798517 39.17041164 -10.1875 39.0625 C-10.1875 38.4025 -10.1875 37.7425 -10.1875 37.0625 C-13.8175 36.7325 -17.4475 36.4025 -21.1875 36.0625 C-19.21789578 28.84061787 -16.59941233 22.10025499 -13.58984375 15.26171875 C-12.71522676 13.26642261 -11.88619148 11.24974529 -11.12890625 9.20703125 C-10.1875 7.0625 -10.1875 7.0625 -8.1875 6.0625 C-7.53194881 3.53516765 -7.53194881 3.53516765 -7.1875 1.0625 C-4.43671116 0.14557039 -2.82801087 -0.04636083 0 0 Z " fill="#868686" transform="translate(70.1875,67.9375)"/>
<path d="M0 0 C3.63 0.33 7.26 0.66 11 1 C11 1.66 11 2.32 11 3 C62.48 3 113.96 3 167 3 C166 8 166 8 163.40463257 10.28411865 C159.44723745 12.27858364 156.94110573 12.48423963 152.52587891 12.45410156 C151.80323853 12.45468567 151.08059814 12.45526978 150.33605957 12.45587158 C147.96572538 12.45310187 145.59667488 12.42206532 143.2265625 12.390625 C141.57604662 12.38315858 139.92552183 12.37746754 138.2749939 12.37347412 C133.94455206 12.35824917 129.61465241 12.31899501 125.28442383 12.2746582 C120.8602634 12.23363735 116.43601481 12.2154486 112.01171875 12.1953125 C103.34089786 12.15249719 94.6705165 12.08428461 86 12 C86 13.32 86 14.64 86 16 C95.57 16 105.14 16 115 16 C115 17.98 115 19.96 115 22 C116.65 22 118.3 22 120 22 C120 20.02 120 18.04 120 16 C127.51044081 15.97683535 135.02087793 15.95906384 142.53134632 15.94818783 C146.01871311 15.94296804 149.50605547 15.93588676 152.9934082 15.92456055 C157.00211828 15.91162246 161.01080267 15.90676431 165.01953125 15.90234375 C166.27272659 15.89718246 167.52592194 15.89202118 168.8170929 15.88670349 C170.55855843 15.88659019 170.55855843 15.88659019 172.33520508 15.88647461 C173.35890701 15.884254 174.38260895 15.88203339 175.43733215 15.87974548 C178 16 178 16 181 17 C181 19.64 181 22.28 181 25 C181.99 24.67 182.98 24.34 184 24 C184 24.66 184 25.32 184 26 C184.66 26 185.32 26 186 26 C186.33 27.32 186.66 28.64 187 30 C191.86896303 29.40380045 196.32790951 28.43023178 201 27 C201 27.99 201 28.98 201 30 C201.66 30 202.32 30 203 30 C202.67 31.98 202.34 33.96 202 36 C201.67 35.34 201.34 34.68 201 34 C199.68 34 198.36 34 197 34 C196.67 35.65 196.34 37.3 196 39 C195.34 39 194.68 39 194 39 C194 39.66 194 40.32 194 41 C193.34 41 192.68 41 192 41 C192 39.35 192 37.7 192 36 C170.13790937 35.88307501 148.27587048 35.79496689 126.41353035 35.74093914 C116.26190854 35.71518366 106.11048129 35.68008393 95.95898438 35.62280273 C87.10847301 35.57288644 78.25810259 35.54068969 69.40745437 35.52955753 C64.72326255 35.52305269 60.03947385 35.50782004 55.35541153 35.47134972 C50.9410987 35.43726009 46.52735273 35.42697304 42.11292076 35.43446159 C40.49808223 35.43309281 38.88322356 35.4232376 37.26849937 35.40397263 C28.28471128 35.30210049 20.61011351 35.56061419 13 41 C10.08418715 43.91581285 8.77012226 46.01236454 8 50 C8.06562691 53.03375295 8.19540449 56.03519147 8.375 59.0625 C8.93541668 69.6633308 9.27226944 80.26410066 9.5625 90.875 C9.58455505 91.67350372 9.60661011 92.47200745 9.6293335 93.29470825 C9.75538573 97.8630739 9.87887441 102.43150116 10 107 C9.67 107 9.34 107 9 107 C7.22488771 91.14462811 5.93538708 75.39884637 5.75 59.4375 C5.717854 57.90186401 5.717854 57.90186401 5.68505859 56.33520508 C5.65553613 49.69757011 6.11022096 44.61020014 10.39453125 39.2578125 C13.87983707 36.4734084 16.5594529 35.31718194 21 35 C21 34.34 21 33.68 21 33 C14.73 32.67 8.46 32.34 2 32 C2 28.79167078 2.22834265 26.49671164 2.9375 23.4375 C3.19853516 22.29087891 3.19853516 22.29087891 3.46484375 21.12109375 C3.90080456 19.39316148 4.43645659 17.69063023 5 16 C3.02 16 1.04 16 -1 16 C-2.1577506 12.52674819 -2.06866652 9.63932552 -2 6 C-1.34 6 -0.68 6 0 6 C0 4.02 0 2.04 0 0 Z " fill="#474644" transform="translate(49,104)"/>
<path d="M0 0 C1.57394531 -0.00386719 1.57394531 -0.00386719 3.1796875 -0.0078125 C5.68176685 0.10501336 7.74256923 0.39991238 10.125 1.125 C10.125 2.445 10.125 3.765 10.125 5.125 C13.425 4.795 16.725 4.465 20.125 4.125 C20.125 4.785 20.125 5.445 20.125 6.125 C28.375 6.125 36.625 6.125 45.125 6.125 C46.445 9.425 47.765 12.725 49.125 16.125 C49.98373942 18.23309346 50.84528889 20.34004674 51.7109375 22.4453125 C61.95364134 47.41885032 61.95364134 47.41885032 66.125 59.125 C66.53322998 60.25204346 66.53322998 60.25204346 66.94970703 61.40185547 C67.81493603 63.80451108 68.66011405 66.21338035 69.5 68.625 C69.76337158 69.35533447 70.02674316 70.08566895 70.2980957 70.83813477 C72.41859548 77.06687982 73.07236318 82.37764678 70.875 88.75 C70.2975 89.86375 69.72 90.9775 69.125 92.125 C68.609375 93.135625 68.09375 94.14625 67.5625 95.1875 C64.08116285 99.38295759 59.90842106 101.61092288 55.125 104.125 C54.48949219 104.46917969 53.85398437 104.81335938 53.19921875 105.16796875 C48.63172325 107.40446655 45.08712876 107.76527468 40.125 107.125 C36.15348374 104.12429883 33.82791692 100.78561472 32.125 96.125 C31.37738639 90.33867548 32.04552402 87.07893963 35.125 82.125 C35.08579045 75.79265768 31.21459 71.2311454 27.8125 66.1875 C23.80240327 60.15852699 20.04372015 54.19343388 16.94921875 47.63671875 C16.45010986 46.5892749 15.95100098 45.54183105 15.43676758 44.46264648 C14.49878179 42.44689352 13.5969077 40.41382786 12.73706055 38.36352539 C11.40947805 35.53506811 10.28540102 33.38784839 8.125 31.125 C4.13472689 29.69135284 0.33105552 29.38673612 -3.875 29.125 C-6.11376953 28.78222656 -6.11376953 28.78222656 -7.875 28.125 C-12.33305244 21.77565259 -14.04292562 14.57315286 -15.875 7.125 C-14.0625 7.25 -14.0625 7.25 -11.875 8.125 C-9.92179411 11.33383825 -8.875 13.3455439 -8.875 17.125 C-8.215 17.125 -7.555 17.125 -6.875 17.125 C-6.215 18.775 -5.555 20.425 -4.875 22.125 C-4.215 22.125 -3.555 22.125 -2.875 22.125 C-4.20683292 17.87446942 -5.47433445 13.85478367 -7.625 9.9375 C-9.14990475 6.5064643 -8.95038876 4.68205512 -7.875 1.125 C-5.17261702 -0.22619149 -3.01485554 -0.00737128 0 0 Z " fill="#6B6A68" transform="translate(133.875,142.875)"/>
<path d="M0 0 C3.63 0.33 7.26 0.66 11 1 C11 1.66 11 2.32 11 3 C62.48 3 113.96 3 167 3 C166 8 166 8 163.40463257 10.28411865 C159.44723745 12.27858364 156.94110573 12.48423963 152.52587891 12.45410156 C151.80323853 12.45468567 151.08059814 12.45526978 150.33605957 12.45587158 C147.96572538 12.45310187 145.59667488 12.42206532 143.2265625 12.390625 C141.57604662 12.38315858 139.92552183 12.37746754 138.2749939 12.37347412 C133.94455206 12.35824917 129.61465241 12.31899501 125.28442383 12.2746582 C120.8602634 12.23363735 116.43601481 12.2154486 112.01171875 12.1953125 C103.34089786 12.15249719 94.6705165 12.08428461 86 12 C86 13.32 86 14.64 86 16 C95.57 16 105.14 16 115 16 C115 17.98 115 19.96 115 22 C114.34 21.67 113.68 21.34 113 21 C113 20.01 113 19.02 113 18 C97.82 18 82.64 18 67 18 C66.67 19.32 66.34 20.64 66 22 C65 23 65 23 61.9375 23.0625 C60.968125 23.041875 59.99875 23.02125 59 23 C58.34 21.35 57.68 19.7 57 18 C55.83428467 18.00785522 55.83428467 18.00785522 54.64501953 18.01586914 C51.13835451 18.03660156 47.63170237 18.04964821 44.125 18.0625 C42.90167969 18.07087891 41.67835937 18.07925781 40.41796875 18.08789062 C38.66806641 18.09272461 38.66806641 18.09272461 36.8828125 18.09765625 C35.26463623 18.10551147 35.26463623 18.10551147 33.61376953 18.11352539 C31 18 31 18 29 17 C25.2370876 16.86262383 21.65822884 17.08681806 18 18 C17.360625 18.969375 16.72125 19.93875 16.0625 20.9375 C14 24 14 24 11.10546875 24.83984375 C8.07177911 25.32368016 5.05897298 25.72103706 2 26 C2.99 22.7 3.98 19.4 5 16 C3.02 16 1.04 16 -1 16 C-2.1577506 12.52674819 -2.06866652 9.63932552 -2 6 C-1.34 6 -0.68 6 0 6 C0 4.02 0 2.04 0 0 Z " fill="#575354" transform="translate(49,104)"/>
<path d="M0 0 C1.57394531 -0.00386719 1.57394531 -0.00386719 3.1796875 -0.0078125 C5.68176685 0.10501336 7.74256923 0.39991238 10.125 1.125 C10.125 2.445 10.125 3.765 10.125 5.125 C13.425 4.795 16.725 4.465 20.125 4.125 C20.125 4.785 20.125 5.445 20.125 6.125 C28.375 6.125 36.625 6.125 45.125 6.125 C46.445 9.425 47.765 12.725 49.125 16.125 C50.01927128 18.32668635 50.91606997 20.52734935 51.81640625 22.7265625 C52.28626953 23.87640625 52.75613281 25.02625 53.24023438 26.2109375 C54.20837493 28.57837432 55.17712913 30.94556028 56.14648438 33.3125 C57.48102723 36.58001897 58.8054247 39.85141267 60.125 43.125 C60.4552417 43.9303418 60.7854834 44.73568359 61.12573242 45.56542969 C62.56317706 49.18427822 63.49564673 52.21786971 63.3125 56.125 C63.27189453 57.2696875 63.27189453 57.2696875 63.23046875 58.4375 C63.17826172 59.2728125 63.17826172 59.2728125 63.125 60.125 C63.455 60.125 63.785 60.125 64.125 60.125 C64.125 62.105 64.125 64.085 64.125 66.125 C64.785 65.795 65.445 65.465 66.125 65.125 C68.76689189 74.29391892 68.76689189 74.29391892 67.125 78.125 C63.51420743 81.11679956 60.72888896 81.44620156 56.125 81.125 C55.795 79.805 55.465 78.485 55.125 77.125 C54.465 77.125 53.805 77.125 53.125 77.125 C52.1173048 75.3585343 51.11908286 73.58666177 50.125 71.8125 C49.568125 70.82636719 49.01125 69.84023437 48.4375 68.82421875 C47.125 66.125 47.125 66.125 47.125 63.125 C46.465 63.125 45.805 63.125 45.125 63.125 C44.898125 62.47402344 44.67125 61.82304687 44.4375 61.15234375 C42.34317794 56.32169018 39.50033109 51.9371487 36.7578125 47.45117188 C34.33757579 43.42341108 32.39866361 39.69137351 31.125 35.125 C30.465 35.125 29.805 35.125 29.125 35.125 C29.0425 34.50625 28.96 33.8875 28.875 33.25 C28.34041549 31.02037532 28.34041549 31.02037532 26.49609375 30.13671875 C22.40009078 28.38900084 18.14702776 27.05006157 13.92578125 25.63671875 C11.125 24.125 11.125 24.125 10.23046875 21.45703125 C10.17826172 20.30267578 10.17826172 20.30267578 10.125 19.125 C9.465 19.125 8.805 19.125 8.125 19.125 C7.93164062 18.41472656 7.73828125 17.70445312 7.5390625 16.97265625 C7.27867187 16.05355469 7.01828125 15.13445312 6.75 14.1875 C6.49476563 13.27097656 6.23953125 12.35445312 5.9765625 11.41015625 C5.35839896 8.95754913 5.35839896 8.95754913 3.125 8.125 C3.764375 8.021875 4.40375 7.91875 5.0625 7.8125 C6.0834375 7.4721875 6.0834375 7.4721875 7.125 7.125 C7.455 6.135 7.785 5.145 8.125 4.125 C3.835 4.125 -0.455 4.125 -4.875 4.125 C-4.20631686 7.23832248 -4.20631686 7.23832248 -1.8125 8.3125 C-1.173125 8.580625 -0.53375 8.84875 0.125 9.125 C-1.525 9.125 -3.175 9.125 -4.875 9.125 C-4.50246094 9.93324219 -4.12992188 10.74148437 -3.74609375 11.57421875 C-3.27300781 12.64285156 -2.79992187 13.71148437 -2.3125 14.8125 C-1.83683594 15.86824219 -1.36117187 16.92398438 -0.87109375 18.01171875 C0.17822011 21.29133893 0.12918265 22.88395539 -0.875 26.125 C-3.72650026 26.35872953 -6.08004903 26.54091532 -8.875 26.125 C-13.29488402 21.55270619 -14.38564215 13.2088863 -15.875 7.125 C-14.0625 7.25 -14.0625 7.25 -11.875 8.125 C-9.92179411 11.33383825 -8.875 13.3455439 -8.875 17.125 C-8.215 17.125 -7.555 17.125 -6.875 17.125 C-6.215 18.775 -5.555 20.425 -4.875 22.125 C-4.215 22.125 -3.555 22.125 -2.875 22.125 C-4.20683292 17.87446942 -5.47433445 13.85478367 -7.625 9.9375 C-9.14990475 6.5064643 -8.95038876 4.68205512 -7.875 1.125 C-5.17261702 -0.22619149 -3.01485554 -0.00737128 0 0 Z " fill="#49494B" transform="translate(133.875,142.875)"/>
<path d="M0 0 C2.5 0.3125 2.5 0.3125 5 1 C5.495 1.99 5.495 1.99 6 3 C8.32156597 3.40729228 10.6568787 3.74438677 13 4 C17.20747552 15.3601839 20.40479569 28.68981334 17.30078125 40.70703125 C14.51417208 45.61916213 9.17371494 47.36850047 4 49 C-4.85778522 50.19275634 -14.18936944 49.11881023 -23 48 C-23.36414063 42.53789063 -23.36414063 42.53789063 -21.86206055 40.3190918 C-19.20560083 38.43724417 -17.25109331 38.6597401 -14.01953125 38.70703125 C-12.85615234 38.71669922 -11.69277344 38.72636719 -10.49414062 38.73632812 C-9.27919922 38.76146484 -8.06425781 38.78660156 -6.8125 38.8125 C-4.97268555 38.83280273 -4.97268555 38.83280273 -3.09570312 38.85351562 C-0.06336336 38.88891259 2.96809996 38.9382924 6 39 C6 40.65 6 42.3 6 44 C6.66 44 7.32 44 8 44 C8 43.34 8 42.68 8 42 C8.66 42 9.32 42 10 42 C10.33 40.35 10.66 38.7 11 37 C12.65 37 14.3 37 16 37 C16.33 35.68 16.66 34.36 17 33 C16.34 33 15.68 33 15 33 C15 32.01 15 31.02 15 30 C13.989375 30.474375 12.97875 30.94875 11.9375 31.4375 C8.34077795 32.9936328 4.90731291 33.6012946 1 34 C0.67 32.35 0.34 30.7 0 29 C-0.66 29 -1.32 29 -2 29 C-2 28.34 -2 27.68 -2 27 C-2.66 27 -3.32 27 -4 27 C-4.33 27.66 -4.66 28.32 -5 29 C-6 27 -6 27 -5 20 C-35.195 19.505 -35.195 19.505 -66 19 C-66 20.98 -66 22.96 -66 25 C-67.65 25 -69.3 25 -71 25 C-71 23.02 -71 21.04 -71 19 C-80.57 19 -90.14 19 -100 19 C-100 17.68 -100 16.36 -100 15 C-99.08180481 14.99413376 -98.16360962 14.98826752 -97.21759033 14.98222351 C-88.56557105 14.9243262 -79.91381074 14.85226652 -71.262043 14.76428509 C-66.81403667 14.71955241 -62.36612254 14.68030277 -57.91796875 14.65356445 C-53.62544719 14.62756023 -49.33327992 14.58717854 -45.04097748 14.53681374 C-43.40316931 14.52012546 -41.76529983 14.50862339 -40.12741852 14.50238609 C-37.83359108 14.49276607 -35.54067399 14.46473362 -33.24707031 14.43237305 C-31.94135071 14.42126999 -30.6356311 14.41016693 -29.29034424 14.39872742 C-25.80932477 13.97689377 -24.5711557 13.2650244 -22 11 C-21.34 11 -20.68 11 -20 11 C-19.67 9.35 -19.34 7.7 -19 6 C-42.76 6 -66.52 6 -91 6 C-91 5.67 -91 5.34 -91 5 C-89.94621658 4.99413376 -88.89243317 4.98826752 -87.80671692 4.98222351 C-77.87472695 4.92500508 -67.94295612 4.85224798 -58.01118946 4.76428509 C-52.90518078 4.7195618 -47.79925225 4.68030991 -42.69311523 4.65356445 C-37.76519617 4.62755113 -32.83758522 4.58716253 -27.9098568 4.53681374 C-26.03004476 4.52013171 -24.15017942 4.50862576 -22.27030373 4.50238609 C-19.63666119 4.49275956 -17.00380929 4.46471784 -14.37036133 4.43237305 C-13.20510674 4.43452568 -13.20510674 4.43452568 -12.01631165 4.4367218 C-7.07758101 4.3509656 -3.56073709 3.56073709 0 0 Z " fill="#706F6F" transform="translate(235,101)"/>
<path d="M0 0 C1.95774069 0.15378852 3.92017352 0.24971463 5.8828125 0.31640625 C7.04941406 0.35830078 8.21601562 0.40019531 9.41796875 0.44335938 C10.64128906 0.48267578 11.86460938 0.52199219 13.125 0.5625 C14.35605469 0.60568359 15.58710937 0.64886719 16.85546875 0.69335938 C19.90352853 0.79968704 22.9516719 0.90171781 26 1 C26.66 2.32 27.32 3.64 28 5 C29.98 5 31.96 5 34 5 C34.66 3.68 35.32 2.36 36 1 C51.18 1 66.36 1 82 1 C82.99 2.98 82.99 2.98 84 5 C86.64 5 89.28 5 92 5 C92 3.68 92 2.36 92 1 C103.88 1 115.76 1 128 1 C128 3.31 128 5.62 128 8 C127.14535156 7.98839844 126.29070312 7.97679687 125.41015625 7.96484375 C124.30542969 7.95582031 123.20070312 7.94679687 122.0625 7.9375 C120.40927734 7.92009766 120.40927734 7.92009766 118.72265625 7.90234375 C116.08552366 7.68737429 116.08552366 7.68737429 115 9 C112.01052955 9.12009316 109.04315431 9.17550183 106.05249023 9.18945312 C104.64241699 9.20189308 104.64241699 9.20189308 103.20385742 9.21458435 C101.15222836 9.23203725 99.10057878 9.24718952 97.04891777 9.26036072 C93.78891193 9.28137688 90.52900555 9.3084115 87.26905823 9.33703613 C80.32524428 9.39686571 73.38138206 9.4487886 66.4375 9.5 C58.43999609 9.55947498 50.44253846 9.62225752 42.44511604 9.69187927 C39.25716256 9.71814389 36.06920388 9.73916016 32.88121033 9.7598877 C21.88500792 9.84544098 10.96591035 10.14696222 0 11 C0 10.34 0 9.68 0 9 C-6.93 9 -13.86 9 -21 9 C-20.67 8.34 -20.34 7.68 -20 7 C-19.01 7 -18.02 7 -17 7 C-16.71125 6.401875 -16.4225 5.80375 -16.125 5.1875 C-15 3 -15 3 -13 0 C-8.87561345 -1.26022922 -3.94218187 -1.97109094 0 0 Z " fill="#272525" transform="translate(80,121)"/>
<path d="M0 0 C-0.61277612 2.96175123 -1.25372522 4.38058783 -3 7 C-3.43165495 9.68585304 -3.75419775 12.29617528 -4 15 C-4.0928125 15.9796875 -4.185625 16.959375 -4.28125 17.96875 C-4.52957586 20.64515095 -4.76863617 23.32208679 -5 26 C-5.495 25.01 -5.495 25.01 -6 24 C-6.66 24 -7.32 24 -8 24 C-8.33 24.66 -8.66 25.32 -9 26 C-10 24 -10 24 -9 17 C-39.195 16.505 -39.195 16.505 -70 16 C-70 17.98 -70 19.96 -70 22 C-71.65 22 -73.3 22 -75 22 C-75 20.02 -75 18.04 -75 16 C-84.57 16 -94.14 16 -104 16 C-104 14.68 -104 13.36 -104 12 C-103.08180481 11.99413376 -102.16360962 11.98826752 -101.21759033 11.98222351 C-92.56557105 11.9243262 -83.91381074 11.85226652 -75.262043 11.76428509 C-70.81403667 11.71955241 -66.36612254 11.68030277 -61.91796875 11.65356445 C-57.62544719 11.62756023 -53.33327992 11.58717854 -49.04097748 11.53681374 C-47.40316931 11.52012546 -45.76529983 11.50862339 -44.12741852 11.50238609 C-41.83359108 11.49276607 -39.54067399 11.46473362 -37.24707031 11.43237305 C-35.94135071 11.42126999 -34.6356311 11.41016693 -33.29034424 11.39872742 C-29.80932477 10.97689377 -28.5711557 10.2650244 -26 8 C-25.34 8 -24.68 8 -24 8 C-23.67 6.35 -23.34 4.7 -23 3 C-46.76 3 -70.52 3 -95 3 C-95 2.67 -95 2.34 -95 2 C-93.94843719 1.99191315 -92.89687439 1.98382629 -91.81344604 1.97549438 C-81.89652662 1.89796158 -71.97974318 1.81020419 -62.06300163 1.71247292 C-56.96488026 1.66255764 -51.86677912 1.6162271 -46.76855469 1.578125 C-41.8471751 1.54121207 -36.92596684 1.49483565 -32.00473404 1.44193649 C-30.12853124 1.42342449 -28.25229175 1.40830477 -26.37603378 1.39665604 C-23.74514019 1.37973893 -21.11463621 1.35069074 -18.48388672 1.31884766 C-17.32402504 1.31560738 -17.32402504 1.31560738 -16.14073181 1.31230164 C-10.66032824 1.22773422 -5.10877635 -1.96491398 0 0 Z " fill="#646462" transform="translate(239,104)"/>
<path d="M0 0 C0.66 1.32 1.32 2.64 2 4 C1.67 4.33 1.34 4.66 1 5 C7.93 5.33 14.86 5.66 22 6 C21.01 6.495 21.01 6.495 20 7 C20 7.66 20 8.32 20 9 C18.783125 9.37125 17.56625 9.7425 16.3125 10.125 C11.70358631 11.84925672 9.73548254 13.9382229 7 18 C5.98834479 21.05486443 5.87128345 23.87274857 5.8671875 27.078125 C5.86525391 28.06594971 5.86332031 29.05377441 5.86132812 30.0715332 C5.86583984 31.12042725 5.87035156 32.16932129 5.875 33.25 C5.87790039 34.87264771 5.87790039 34.87264771 5.88085938 36.52807617 C5.91944259 43.72866855 6.24015878 50.83941095 6.77734375 58.01953125 C7.20543723 65.67264098 7.07495616 73.33781451 7 81 C5.0085944 81.38133299 3.00720923 81.71325582 1 82 C-0.84654409 80.15345591 -0.34975588 77.14198534 -0.5 74.65625 C-0.5825 73.3465625 -0.665 72.036875 -0.75 70.6875 C-0.83364433 69.29168527 -0.91697536 67.89585173 -1 66.5 C-1.53734646 56.5100225 -1.53734646 56.5100225 -2.546875 46.5625 C-3.29502532 40.31220478 -3.22350363 34.00288472 -3.24023438 27.71630859 C-3.24998015 25.50450578 -3.28110909 23.29361881 -3.3125 21.08203125 C-3.3672734 13.53094468 -3.01795858 7.05249268 0 0 Z " fill="#757472" transform="translate(50,130)"/>
<path d="M0 0 C12.87 0 25.74 0 39 0 C39 3.3 39 6.6 39 10 C32.47598615 16.52401385 5.75033391 13.2280789 -3.17192078 13.25276661 C-6.88549095 13.25223215 -10.59894826 13.2417744 -14.3125 13.23046875 C-16.94946266 13.22927266 -19.58642575 13.22882469 -22.22338867 13.2290802 C-27.69582572 13.22815466 -33.16820603 13.21961287 -38.640625 13.20581055 C-44.943922 13.18997028 -51.24715775 13.18481741 -57.55047321 13.1855461 C-63.67154684 13.18615777 -69.79259766 13.18093572 -75.91366577 13.17275429 C-78.49718101 13.16958321 -81.08069801 13.16760388 -83.66421509 13.16686058 C-87.2618513 13.16468803 -90.85941145 13.15592786 -94.45703125 13.14526367 C-95.51265259 13.14571686 -96.56827393 13.14617004 -97.65588379 13.14663696 C-103.20467299 13.12263573 -108.50442842 12.74170588 -114 12 C-116.36693717 12.33500079 -116.36693717 12.33500079 -118 13 C-118.33 11.68 -118.66 10.36 -119 9 C-115.86501708 7.14223235 -113.62528568 6.79859524 -110 7 C-110 7.33 -110 7.66 -110 8 C-103.4 8.33 -96.8 8.66 -90 9 C-90 9.66 -90 10.32 -90 11 C-89.11396591 10.8600209 -88.22793182 10.72004181 -87.31504822 10.57582092 C-75.13623257 8.83648453 -63.10316464 8.67048416 -50.81640625 8.62109375 C-48.62205795 8.60488487 -46.42771665 8.58770144 -44.23338318 8.56959534 C-38.51129379 8.52431254 -32.78919467 8.4892798 -27.0670166 8.45739746 C-17.85722727 8.40510739 -8.64753919 8.34052786 0.56212044 8.26918221 C3.7757332 8.24632745 6.98933266 8.23008512 10.20298767 8.21446228 C12.15282346 8.20106779 14.10265777 8.18745406 16.05249023 8.17358398 C17.39797691 8.16966393 17.39797691 8.16966393 18.77064514 8.16566467 C22.70059715 8.52231513 22.70059715 8.52231513 26 7 C27.4555937 6.90141397 28.91607919 6.87027857 30.375 6.875 C31.16648438 6.87242188 31.95796875 6.86984375 32.7734375 6.8671875 C35 7 35 7 38 8 C38 5.69 38 3.38 38 1 C26.12 1 14.24 1 2 1 C2 2.32 2 3.64 2 5 C1.34 5 0.68 5 0 5 C0 3.35 0 1.7 0 0 Z " fill="#383735" transform="translate(170,121)"/>
<path d="M0 0 C33 0 66 0 100 0 C98 4 98 4 97 5 C94.65746218 5.09492722 92.34453896 5.12559791 90.00170898 5.11352539 C88.90421326 5.11374443 88.90421326 5.11374443 87.7845459 5.1139679 C85.35503216 5.11326867 82.92559417 5.10547585 80.49609375 5.09765625 C78.81600486 5.0957921 77.13591543 5.09436819 75.45582581 5.09336853 C71.02526357 5.08954307 66.5947339 5.07971256 62.16418457 5.06866455 C57.64657024 5.05845103 53.12895066 5.05387104 48.61132812 5.04882812 C39.74087107 5.03809031 30.87043824 5.02101356 22 5 C22 5.66 22 6.32 22 7 C8.29316778 7.12385692 -5.31702148 6.8230363 -19 6 C-19 5.01 -19 4.02 -19 3 C-15.69005287 1.34502644 -12.00877 1.89915665 -8.375 1.9375 C-7.57320312 1.94201172 -6.77140625 1.94652344 -5.9453125 1.95117188 C-3.96350994 1.96296832 -1.98174567 1.98090395 0 2 C0 1.34 0 0.68 0 0 Z " fill="#5B5A5C" transform="translate(113,108)"/>
<path d="M0 0 C3.3 0 6.6 0 10 0 C10 0.66 10 1.32 10 2 C61.48 2 112.96 2 166 2 C165 7 165 7 162.40463257 9.27838135 C158.46841446 11.26880656 155.92135498 11.51589519 151.52587891 11.54589844 C150.80323853 11.55623611 150.08059814 11.56657379 149.33605957 11.57722473 C146.9659967 11.60653935 144.59679202 11.60814941 142.2265625 11.609375 C140.57602318 11.62436441 138.92549881 11.64109316 137.2749939 11.65948486 C132.94479668 11.70308555 128.61480177 11.72314118 124.28442383 11.73822021 C119.86006748 11.75781768 115.43592878 11.79978468 111.01171875 11.83984375 C102.3412029 11.91506692 93.67077271 11.96540597 85 12 C84.67 12.99 84.34 13.98 84 15 C82.96465874 14.51486435 82.96465874 14.51486435 81.90840149 14.01992798 C78.59856777 12.8592244 75.96998607 12.72198042 72.46557617 12.68115234 C70.51411934 12.65134781 70.51411934 12.65134781 68.52323914 12.62094116 C67.11315073 12.60906649 65.70306053 12.59740353 64.29296875 12.5859375 C62.84278777 12.5672164 61.39261758 12.54764228 59.94245911 12.5272522 C56.13675304 12.47602431 52.3310117 12.43634886 48.52514648 12.39910889 C44.63711893 12.35901043 40.74923696 12.30794481 36.86132812 12.2578125 C29.24098546 12.16116395 21.62057209 12.07672406 14 12 C14 11.34 14 10.68 14 10 C37.43 10 60.86 10 85 10 C85 9.34 85 8.68 85 8 C89.87177565 7.8513642 94.74369396 7.7093779 99.61584473 7.57357788 C101.36904147 7.52460715 103.12221575 7.4748255 104.87536621 7.42422485 C114.75414193 7.143446 124.61720902 6.95588524 134.5 7.07421875 C135.74254547 7.08662094 135.74254547 7.08662094 137.01019287 7.09927368 C140.97824286 7.1407459 144.9440511 7.20393587 148.91113281 7.30078125 C150.34178675 7.31978882 151.77245073 7.33805946 153.203125 7.35546875 C155.06952637 7.39643677 155.06952637 7.39643677 156.97363281 7.43823242 C160.10903433 7.32853167 160.10903433 7.32853167 161.68914795 4.97261047 C162.12172913 4.32164902 162.5543103 3.67068756 163 3 C162.21462136 3.00092179 161.42924273 3.00184359 160.62006474 3.00279331 C141.48970886 3.02489986 122.35935554 3.04143658 103.2289896 3.05181217 C93.97760623 3.05696339 84.7262314 3.06398369 75.47485352 3.07543945 C67.4091928 3.08542219 59.34353827 3.09186197 51.27787155 3.09408849 C47.00915412 3.0953895 42.74045438 3.09843672 38.47174263 3.10573006 C34.44908568 3.11254693 30.42645361 3.11460547 26.40379143 3.11310768 C24.93208048 3.11338147 23.46036865 3.11535283 21.98866272 3.11920547 C14.57550184 3.13765027 7.3481144 3.01951328 0 2 C0 1.34 0 0.68 0 0 Z " fill="#2B2929" transform="translate(50,105)"/>
<path d="M0 0 C2.31 0 4.62 0 7 0 C7 0.66 7 1.32 7 2 C8.32 2.33 9.64 2.66 11 3 C11.33872513 4.41538717 11.67074624 5.83237963 12 7.25 C12.185625 8.03890625 12.37125 8.8278125 12.5625 9.640625 C13 12 13 12 13 16 C13.66 16 14.32 16 15 16 C15.24234375 16.69867188 15.4846875 17.39734375 15.734375 18.1171875 C16.06953125 19.02726562 16.4046875 19.93734375 16.75 20.875 C17.23726562 22.23238281 17.23726562 22.23238281 17.734375 23.6171875 C19.2132419 26.40147395 20.23013152 26.70849386 23 28 C25.35402574 31.97900619 26.43212038 36.390716 26 41 C26.99 41 27.98 41 29 41 C29.33 42.65 29.66 44.3 30 46 C30.66 46 31.32 46 32 46 C32.28875 46.804375 32.5775 47.60875 32.875 48.4375 C33.73262568 51.1326468 33.73262568 51.1326468 36 52 C36.49506451 58.71087447 36.29302091 64.50091301 32 70 C30.515 70.495 30.515 70.495 29 71 C29 71.66 29 72.32 29 73 C26 72 26 72 24.3125 69.5 C22.69539116 65.18770976 22.33090223 61.5566405 23 57 C23.97691857 55.31970006 24.97388051 53.65071396 26 52 C25.97035042 45.63522252 22.03444758 41.01151823 18.625 35.9375 C13.58572324 28.23950758 8.88919132 20.46756961 4.625 12.3125 C4.15529785 11.42232178 3.6855957 10.53214355 3.20166016 9.61499023 C0 3.39439645 0 3.39439645 0 0 Z " fill="#4F4D4C" transform="translate(143,173)"/>
<path d="M0 0 C0.10024386 5.01296411 0.17210365 10.02532185 0.21972656 15.0390625 C0.23961663 16.73805934 0.2667388 18.43698984 0.30175781 20.13574219 C0.5771158 33.85504916 -1.01540208 45.43234438 -7 58 C-7.33 57.34 -7.66 56.68 -8 56 C-8.66 55.67 -9.32 55.34 -10 55 C-10.02480236 49.00431618 -10.04290845 43.00866254 -10.05493164 37.01293945 C-10.05994639 34.97517374 -10.0667598 32.9374116 -10.07543945 30.8996582 C-10.08763052 27.96304439 -10.09325702 25.02647834 -10.09765625 22.08984375 C-10.10281754 21.18540024 -10.10797882 20.28095673 -10.11329651 19.34910583 C-10.1137262 14.45452139 -9.8305951 9.82549889 -9 5 C-9.99 5 -10.98 5 -12 5 C-12 4.01 -12 3.02 -12 2 C-8.09450436 -0.60366376 -4.53252107 -0.07369953 0 0 Z " fill="#8A8989" transform="translate(84,150)"/>
<path d="M0 0 C0 0.99 0 1.98 0 3 C47.52 3 95.04 3 144 3 C144.33 3.99 144.66 4.98 145 6 C73.225 5.505 73.225 5.505 0 5 C-0.33 5.99 -0.66 6.98 -1 8 C-3.97 8 -6.94 8 -10 8 C-10 5.69 -10 3.38 -10 1 C-6.78548731 -0.60725635 -3.56387464 -0.05748185 0 0 Z " fill="#7C7C7C" transform="translate(74,68)"/>
<path d="M0 0 C0.99 0.33 1.98 0.66 3 1 C2.01 1.33 1.02 1.66 0 2 C0 1.34 0 0.68 0 0 Z M6 -3 C6.66 -2.67 7.32 -2.34 8 -2 C8.05459773 -0.43789839 8.09306101 1.12477089 8.125 2.6875 C8.14820313 3.55761719 8.17140625 4.42773438 8.1953125 5.32421875 C7.97305429 8.36915625 7.47589828 10.32135476 6 13 C-4.28329734 21.33145883 -16.78466652 19.63199883 -29.0625 18.5 C-30.361875 18.335 -31.66125 18.17 -33 18 C-33.36414063 12.53789062 -33.36414063 12.53789062 -31.86206055 10.3190918 C-29.20560083 8.43724417 -27.25109331 8.6597401 -24.01953125 8.70703125 C-22.85615234 8.71669922 -21.69277344 8.72636719 -20.49414062 8.73632812 C-19.27919922 8.76146484 -18.06425781 8.78660156 -16.8125 8.8125 C-15.58595703 8.82603516 -14.35941406 8.83957031 -13.09570312 8.85351562 C-10.06336336 8.88891259 -7.03190004 8.9382924 -4 9 C-4 10.65 -4 12.3 -4 14 C-3.34 14 -2.68 14 -2 14 C-2 13.34 -2 12.68 -2 12 C-1.34 12 -0.68 12 0 12 C0.33 10.35 0.66 8.7 1 7 C2.65 7 4.3 7 6 7 C6.33 5.68 6.66 4.36 7 3 C6.34 3 5.68 3 5 3 C5 2.01 5 1.02 5 0 C4.34 0 3.68 0 3 0 C3.33 -0.66 3.66 -1.32 4 -2 C4.66 -1.67 5.32 -1.34 6 -1 C6 -1.66 6 -2.32 6 -3 Z " fill="#676563" transform="translate(245,131)"/>
<path d="M0 0 C14.85 0 29.7 0 45 0 C45.66 1.32 46.32 2.64 47 4 C49.64 4 52.28 4 55 4 C55 2.68 55 1.36 55 0 C62.09727428 -0.10808032 68.96094956 0.06145994 76 1 C76 1.33 76 1.66 76 2 C70.39 2 64.78 2 59 2 C58.67 3.65 58.34 5.3 58 7 C50.22211479 7.05062165 42.44427191 7.08570046 34.66625977 7.10986328 C32.0191082 7.11993405 29.37196779 7.13359136 26.72485352 7.15087891 C22.92461395 7.17507972 19.12452119 7.18647228 15.32421875 7.1953125 C14.13664474 7.20563507 12.94907074 7.21595764 11.72550964 7.22659302 C10.62459488 7.22674408 9.52368011 7.22689514 8.3894043 7.22705078 C7.41899704 7.231492 6.44858978 7.23593323 5.44877625 7.24050903 C3 7 3 7 0 5 C0 3.35 0 1.7 0 0 Z " fill="#1D1A18" transform="translate(117,122)"/>
<path d="M0 0 C1.34403648 -0.00618599 1.34403648 -0.00618599 2.71522522 -0.01249695 C3.69561768 -0.00171112 4.67601013 0.00907471 5.68611145 0.02018738 C7.23758629 0.01953026 7.23758629 0.01953026 8.82040405 0.01885986 C12.24563856 0.02095304 15.67038608 0.04430953 19.09553528 0.0677948 C21.46779106 0.07338886 23.84005031 0.07765985 26.21231079 0.08065796 C32.46118205 0.09212164 38.70984469 0.12160212 44.95863342 0.1547699 C51.3330147 0.18543786 57.70742964 0.1991563 64.0818634 0.21427917 C76.59302021 0.24647018 89.10403228 0.29710978 101.61506653 0.36076355 C101.61506653 1.02076355 101.61506653 1.68076355 101.61506653 2.36076355 C77.70595834 3.19868412 53.83094613 3.49557389 29.90821838 3.4294281 C25.67574093 3.41891017 21.4432566 3.41457178 17.21076965 3.40959167 C9.0121844 3.39909503 0.81363048 3.3821984 -7.38493347 3.36076355 C-5.03203306 0.52514894 -3.65656591 -0.01298189 0 0 Z " fill="#737273" transform="translate(77.38493347167969,103.63923645019531)"/>
<path d="M0 0 C3.3 0 6.6 0 10 0 C10 0.99 10 1.98 10 3 C12.64 3 15.28 3 18 3 C18 4.65 18 6.3 18 8 C18.66 7.67 19.32 7.34 20 7 C20 9.64 20 12.28 20 15 C11.42 15 2.84 15 -6 15 C-3 12 -3 12 -1 11 C-0.5316735 8.41394668 -0.5316735 8.41394668 -0.375 5.4375 C-0.30023438 4.42558594 -0.22546875 3.41367188 -0.1484375 2.37109375 C-0.09945312 1.58863281 -0.05046875 0.80617188 0 0 Z " fill="#323130" transform="translate(212,121)"/>
<path d="M0 0 C5.19611221 -0.04947953 10.39208691 -0.08575727 15.58837891 -0.10986328 C17.35565582 -0.11991384 19.12291613 -0.13355642 20.89013672 -0.15087891 C23.43200785 -0.17516885 25.97365889 -0.18649255 28.515625 -0.1953125 C29.69865204 -0.21079636 29.69865204 -0.21079636 30.90557861 -0.22659302 C34.74514592 -0.22737633 37.76892799 -0.21479793 41 2 C41.495 2.495 41.495 2.495 42 3 C42.33 2.01 42.66 1.02 43 0 C43 0.99 43 1.98 43 3 C52.57 3 62.14 3 72 3 C72 4.98 72 6.96 72 9 C71.01 8.505 71.01 8.505 70 8 C70 7.01 70 6.02 70 5 C54.82 5 39.64 5 24 5 C23.67 6.32 23.34 7.64 23 9 C22 10 22 10 18.9375 10.0625 C17.968125 10.041875 16.99875 10.02125 16 10 C15.34 8.35 14.68 6.7 14 5 C13.22285645 5.01047363 12.44571289 5.02094727 11.64501953 5.03173828 C8.138379 5.07320282 4.63178994 5.09929578 1.125 5.125 C-0.09832031 5.14175781 -1.32164063 5.15851563 -2.58203125 5.17578125 C-4.33193359 5.18544922 -4.33193359 5.18544922 -6.1171875 5.1953125 C-7.19597168 5.20578613 -8.27475586 5.21625977 -9.38623047 5.22705078 C-12 5 -12 5 -14 3 C2.66666667 3 19.33333333 3 36 3 C36 2.34 36 1.68 36 1 C24.12 1 12.24 1 0 1 C0 0.67 0 0.34 0 0 Z " fill="#514F4F" transform="translate(92,117)"/>
<path d="M0 0 C12.87 0 25.74 0 39 0 C39 1.65 39 3.3 39 5 C48.24 5 57.48 5 67 5 C67 5.33 67 5.66 67 6 C20.6163353 6.20638953 20.6163353 6.20638953 0 5 C0 3.35 0 1.7 0 0 Z " fill="#868585" transform="translate(155,144)"/>
<path d="M0 0 C0.33 0.66 0.66 1.32 1 2 C1.66 2 2.32 2 3 2 C3.33 3.32 3.66 4.64 4 6 C8.86896303 5.40380045 13.32790951 4.43023178 18 3 C18 3.99 18 4.98 18 6 C18.66 6 19.32 6 20 6 C19.67 7.98 19.34 9.96 19 12 C18.505 11.01 18.505 11.01 18 10 C16.68 10 15.36 10 14 10 C13.67 11.65 13.34 13.3 13 15 C12.34 15 11.68 15 11 15 C11 15.66 11 16.32 11 17 C10.34 17 9.68 17 9 17 C9 15.35 9 13.7 9 12 C7.69796631 12.01571045 7.69796631 12.01571045 6.36962891 12.03173828 C3.15300472 12.06579716 -0.06352767 12.09088767 -3.28027344 12.10986328 C-4.67320781 12.11992877 -6.06612102 12.13358234 -7.45898438 12.15087891 C-9.4595436 12.1751022 -11.46025615 12.18540814 -13.4609375 12.1953125 C-14.66540527 12.20578613 -15.86987305 12.21625977 -17.11083984 12.22705078 C-20 12 -20 12 -22 10 C-17.37183267 7.64417935 -13.24465865 7.76478531 -8.1875 7.875 C-7.00510742 7.88853516 -7.00510742 7.88853516 -5.79882812 7.90234375 C-3.86575334 7.92577496 -1.9328362 7.96164162 0 8 C0 5.36 0 2.72 0 0 Z " fill="#4F4D4D" transform="translate(232,128)"/>
<path d="M0 0 C0.66 0 1.32 0 2 0 C2.28875 0.804375 2.5775 1.60875 2.875 2.4375 C3.73262568 5.1326468 3.73262568 5.1326468 6 6 C6.49506451 12.71087447 6.29302091 18.50091301 2 24 C1.01 24.33 0.02 24.66 -1 25 C-1 25.66 -1 26.32 -1 27 C-4 26 -4 26 -5.6875 23.5 C-7.30658229 19.18244721 -7.66008667 15.56136815 -7 11 C-5.5 8.25 -5.5 8.25 -4 6 C-3.74803871 3.29046449 -3.74803871 3.29046449 -4 1 C-3.34 1.33 -2.68 1.66 -2 2 C-2 4.31 -2 6.62 -2 9 C-1.01 9 -0.02 9 1 9 C1.07427838 5.65747276 1.06546953 3.1964086 0 0 Z " fill="#555353" transform="translate(173,219)"/>
<path d="M0 0 C3.3 0 6.6 0 10 0 C10 0.66 10 1.32 10 2 C61.48 2 112.96 2 166 2 C165.67 3.65 165.34 5.3 165 7 C164.01 7.33 163.02 7.66 162 8 C162 5 162 5 163 3 C162.21462136 3.00092179 161.42924273 3.00184359 160.62006474 3.00279331 C141.48970886 3.02489986 122.35935554 3.04143658 103.2289896 3.05181217 C93.97760623 3.05696339 84.7262314 3.06398369 75.47485352 3.07543945 C67.4091928 3.08542219 59.34353827 3.09186197 51.27787155 3.09408849 C47.00915412 3.0953895 42.74045438 3.09843672 38.47174263 3.10573006 C34.44908568 3.11254693 30.42645361 3.11460547 26.40379143 3.11310768 C24.93208048 3.11338147 23.46036865 3.11535283 21.98866272 3.11920547 C14.57550184 3.13765027 7.3481144 3.01951328 0 2 C0 1.34 0 0.68 0 0 Z " fill="#3C3A3B" transform="translate(50,105)"/>
<path d="M0 0 C1.98 0 3.96 0 6 0 C6 0.33 6 0.66 6 1 C4.35 1 2.7 1 1 1 C1 1.66 1 2.32 1 3 C3.97 3 6.94 3 10 3 C13 10.5 13 10.5 13 15 C9.33333333 15 5.66666667 15 2 15 C2 13.02 2 11.04 2 9 C1.01 9 0.02 9 -1 9 C-1.33 10.32 -1.66 11.64 -2 13 C-2 10.69 -2 8.38 -2 6 C-1.34 6 -0.68 6 0 6 C0 4.02 0 2.04 0 0 Z " fill="#706F6D" transform="translate(49,104)"/>
<path d="M0 0 C2.97 0 5.94 0 9 0 C9 0.99 9 1.98 9 3 C33.09 3 57.18 3 82 3 C82 3.33 82 3.66 82 4 C58.24 4 34.48 4 10 4 C9.67 4.99 9.34 5.98 9 7 C6.03 7 3.06 7 0 7 C0 4.69 0 2.38 0 0 Z " fill="#505050" transform="translate(64,69)"/>
<path d="M0 0 C0.99 0.33 1.98 0.66 3 1 C2.278125 1.556875 1.55625 2.11375 0.8125 2.6875 C-5.51019649 7.84527711 -5.51019649 7.84527711 -9 15 C-9.1259906 18.05635135 -8.89949391 21.07578804 -8.6875 24.125 C-8.57478435 26.06751737 -8.46568227 28.01024638 -8.359375 29.953125 C-8.29943359 31.04560547 -8.23949219 32.13808594 -8.17773438 33.26367188 C-7.81938925 40.79679519 -7.64045949 48.33636807 -7.4375 55.875 C-7.39355377 57.47282123 -7.34952865 59.07064028 -7.30541992 60.66845703 C-7.20165205 64.44558727 -7.10014645 68.22277208 -7 72 C-7.33 72 -7.66 72 -8 72 C-9.77511229 56.14462811 -11.06461292 40.39884637 -11.25 24.4375 C-11.27143066 23.41374268 -11.29286133 22.38998535 -11.31494141 21.33520508 C-11.34425689 14.74410656 -11.00791055 9.41355752 -6.46484375 4.2578125 C-2.22222222 1.11111111 -2.22222222 1.11111111 0 0 Z " fill="#504F4D" transform="translate(66,139)"/>
<path d="M0 0 C0.66 0.33 1.32 0.66 2 1 C2.40651611 12.63087745 2.40651611 12.63087745 0 16 C-5.87734399 20.54043742 -10.69169416 21.58002427 -18 21 C-18 20.34 -18 19.68 -18 19 C-18.99 19 -19.98 19 -21 19 C-21 18.34 -21 17.68 -21 17 C-17.79984144 15.93328048 -16.11455706 16.05154528 -12.8125 16.4375 C-11.91144531 16.53933594 -11.01039063 16.64117187 -10.08203125 16.74609375 C-9.05142578 16.87177734 -9.05142578 16.87177734 -8 17 C-8 16.34 -8 15.68 -8 15 C-7.34 15 -6.68 15 -6 15 C-5.67 13.35 -5.34 11.7 -5 10 C-3.35 10 -1.7 10 0 10 C0.33 8.68 0.66 7.36 1 6 C0.34 6 -0.32 6 -1 6 C-1 5.01 -1 4.02 -1 3 C-1.66 3 -2.32 3 -3 3 C-2.67 2.34 -2.34 1.68 -2 1 C-1.34 1.33 -0.68 1.66 0 2 C0 1.34 0 0.68 0 0 Z M-6 3 C-5.01 3.33 -4.02 3.66 -3 4 C-3.99 4.33 -4.98 4.66 -6 5 C-6 4.34 -6 3.68 -6 3 Z " fill="#615F60" transform="translate(251,128)"/>
<path d="M0 0 C27.39 0 54.78 0 83 0 C82.67 0.66 82.34 1.32 82 2 C82.99 2.99 82.99 2.99 84 4 C81.00519083 4.8723412 78.36424089 5.10829766 75.25 5.0625 C74.45078125 5.05347656 73.6515625 5.04445313 72.828125 5.03515625 C72.22484375 5.02355469 71.6215625 5.01195313 71 5 C71.33 3.68 71.66 2.36 72 1 C48.24 1 24.48 1 0 1 C0 0.67 0 0.34 0 0 Z " fill="#545455" transform="translate(144,106)"/>
<path d="M0 0 C0.33 0.99 0.66 1.98 1 3 C10.57 3 20.14 3 30 3 C30 4.98 30 6.96 30 9 C29.34 8.67 28.68 8.34 28 8 C28 7.01 28 6.02 28 5 C12.82 5 -2.36 5 -18 5 C-18.33 6.32 -18.66 7.64 -19 9 C-20 10 -20 10 -23.0625 10.0625 C-24.031875 10.041875 -25.00125 10.02125 -26 10 C-26 9.67 -26 9.34 -26 9 C-24.35 9 -22.7 9 -21 9 C-21 7.35 -21 5.7 -21 4 C-19.85660156 3.95101562 -18.71320313 3.90203125 -17.53515625 3.8515625 C-16.04424527 3.77654811 -14.55336108 3.70099972 -13.0625 3.625 C-12.30775391 3.5940625 -11.55300781 3.563125 -10.77539062 3.53125 C-8.84492605 3.4273685 -6.92057919 3.22104386 -5 3 C-4.67 2.34 -4.34 1.68 -4 1 C-1 2 -1 2 0 3 C0 2.01 0 1.02 0 0 Z " fill="#42403F" transform="translate(134,117)"/>
<path d="M0 0 C18.48 0 36.96 0 56 0 C56 0.66 56 1.32 56 2 C47.585 2.495 47.585 2.495 39 3 C38.34 4.32 37.68 5.64 37 7 C36.505 5.02 36.505 5.02 36 3 C35.01604248 2.98018066 34.03208496 2.96036133 33.01831055 2.93994141 C29.36717161 2.86386013 25.71642991 2.775147 22.06567383 2.68261719 C20.48567549 2.64433779 18.90559031 2.60948303 17.32543945 2.578125 C15.05388355 2.53245124 12.78292491 2.47446216 10.51171875 2.4140625 C9.80536789 2.40251129 9.09901703 2.39096008 8.3712616 2.37905884 C4.72258607 2.26928952 3.11786454 2.07857636 0 0 Z " fill="#6B6A6B" transform="translate(72,118)"/>
<path d="M0 0 C1.27617187 0.02320313 2.55234375 0.04640625 3.8671875 0.0703125 C5.78917969 0.09738281 5.78917969 0.09738281 7.75 0.125 C9.23113281 0.15980469 9.23113281 0.15980469 10.7421875 0.1953125 C11.8671875 4.9453125 11.8671875 4.9453125 10.7421875 7.1953125 C5.4621875 7.1953125 0.1821875 7.1953125 -5.2578125 7.1953125 C-5.2578125 0.31521658 -5.2578125 0.31521658 0 0 Z " fill="#696764" transform="translate(199.2578125,141.8046875)"/>
<path d="M0 0 C0.33 0.99 0.66 1.98 1 3 C1.66 3 2.32 3 3 3 C3 17.19 3 31.38 3 46 C2.67 45.34 2.34 44.68 2 44 C1.34 43.67 0.68 43.34 0 43 C0 28.81 0 14.62 0 0 Z " fill="#797778" transform="translate(74,162)"/>
<path d="M0 0 C0 13.53 0 27.06 0 41 C-0.33 41 -0.66 41 -1 41 C-1.02505615 40.20303711 -1.0501123 39.40607422 -1.07592773 38.58496094 C-1.19198789 34.97314778 -1.31466931 31.36158898 -1.4375 27.75 C-1.47681641 26.49574219 -1.51613281 25.24148437 -1.55664062 23.94921875 C-1.59853516 22.74394531 -1.64042969 21.53867188 -1.68359375 20.296875 C-1.72025146 19.18666992 -1.75690918 18.07646484 -1.79467773 16.93261719 C-2.04168239 13.38588443 -2.04168239 13.38588443 -3 10 C-5.49034386 8.70339566 -5.49034386 8.70339566 -8 8 C-8 6.35 -8 4.7 -8 3 C-7.34 3 -6.68 3 -6 3 C-6 2.34 -6 1.68 -6 1 C-4 0 -4 0 0 0 Z " fill="#605F5D" transform="translate(74,158)"/>
<path d="M0 0 C1.8125 0.125 1.8125 0.125 4 1 C5.95320589 4.20883825 7 6.2205439 7 10 C7.66 10 8.32 10 9 10 C9.3403125 11.2065625 9.3403125 11.2065625 9.6875 12.4375 C10.120625 13.283125 10.55375 14.12875 11 15 C13.54775306 15.89386164 13.54775306 15.89386164 16 16 C15.67 16.99 15.34 17.98 15 19 C12.14849974 19.23372953 9.79495097 19.41591532 7 19 C2.58011598 14.42770619 1.48935785 6.0838863 0 0 Z " fill="#2D2E2F" transform="translate(118,150)"/>
<path d="M0 0 C4.62 0 9.24 0 14 0 C12 4 12 4 11 5 C8.32267086 5.10159508 5.67721627 5.14076323 3 5.125 C2.22922119 5.12306641 1.45844238 5.12113281 0.66430664 5.11914062 C-4.62277649 5.07902365 -9.76229204 4.76184843 -15 4 C-15 3.67 -15 3.34 -15 3 C-14.08476562 3.02320312 -13.16953125 3.04640625 -12.2265625 3.0703125 C-10.44378906 3.09738281 -10.44378906 3.09738281 -8.625 3.125 C-6.84996094 3.15980469 -6.84996094 3.15980469 -5.0390625 3.1953125 C-1.88846183 3.32866229 -1.88846183 3.32866229 0 1 C0 0.67 0 0.34 0 0 Z " fill="#535355" transform="translate(199,108)"/>
<path d="M0 0 C2.44897847 3.67346771 2.31537716 5.66356399 2 10 C1.34 10.66 0.68 11.32 0 12 C-1 10 -1 10 0 3 C-17.49 2.67 -34.98 2.34 -53 2 C-53 1.67 -53 1.34 -53 1 C-46.09490109 0.85701064 -39.18978923 0.7146598 -32.28466797 0.57275391 C-29.93538108 0.52439864 -27.5860972 0.47589694 -25.23681641 0.42724609 C-21.86101041 0.35736249 -18.48519395 0.28800466 -15.109375 0.21875 C-14.05820496 0.19687622 -13.00703491 0.17500244 -11.92401123 0.15246582 C-10.94329651 0.13244507 -9.96258179 0.11242432 -8.95214844 0.09179688 C-7.6597525 0.06514954 -7.6597525 0.06514954 -6.34124756 0.03796387 C-4.22773833 0.00369283 -2.11378707 0 0 0 Z " fill="#555453" transform="translate(230,118)"/>
<path d="M0 0 C1.10601562 -0.00580078 1.10601562 -0.00580078 2.234375 -0.01171875 C7.7466804 -0.0016598 7.7466804 -0.0016598 10 1.125 C10 2.115 10 3.105 10 4.125 C3.4 4.125 -3.2 4.125 -10 4.125 C-10 3.135 -10 2.145 -10 1.125 C-6.84150315 -0.45424842 -3.4634872 -0.01816514 0 0 Z " fill="#805F62" transform="translate(104,109.875)"/>
<path d="M0 0 C0.33 0.99 0.66 1.98 1 3 C14.2 3 27.4 3 41 3 C41 3.33 41 3.66 41 4 C38.69 4 36.38 4 34 4 C34 5.98 34 7.96 34 10 C32.35 10 30.7 10 29 10 C29 8.02 29 6.04 29 4 C19.43 4 9.86 4 0 4 C0 2.68 0 1.36 0 0 Z " fill="#565553" transform="translate(135,116)"/>
<path d="M0 0 C4.62 0 9.24 0 14 0 C14 0.33 14 0.66 14 1 C10.37 1 6.74 1 3 1 C3.50980961 5.03378366 3.50980961 5.03378366 6.0625 6.25 C6.701875 6.4975 7.34125 6.745 8 7 C6.35 7 4.7 7 3 7 C3.3609375 7.84304687 3.721875 8.68609375 4.09375 9.5546875 C4.78984375 11.19824219 4.78984375 11.19824219 5.5 12.875 C5.9640625 13.96554688 6.428125 15.05609375 6.90625 16.1796875 C8 19 8 19 8 21 C7.34 21 6.68 21 6 21 C5.66226563 20.18015625 5.32453125 19.3603125 4.9765625 18.515625 C4.53054687 17.43796875 4.08453125 16.3603125 3.625 15.25 C3.18414062 14.18265625 2.74328125 13.1153125 2.2890625 12.015625 C1.11975071 9.10090756 1.11975071 9.10090756 -0.2265625 6.921875 C-1 5 -1 5 0 0 Z " fill="#514F4F" transform="translate(126,145)"/>
<path d="M0 0 C2.97 0 5.94 0 9 0 C9.38133299 1.9914056 9.71325582 3.99279077 10 6 C9 7 9 7 6.93359375 7.09765625 C6.10988281 7.08605469 5.28617187 7.07445313 4.4375 7.0625 C3.61121094 7.05347656 2.78492187 7.04445313 1.93359375 7.03515625 C1.29550781 7.02355469 0.65742187 7.01195313 0 7 C0 4.69 0 2.38 0 0 Z " fill="#3F3F3F" transform="translate(64,69)"/>
<path d="M0 0 C9.9 0 19.8 0 30 0 C30 1.98 30 3.96 30 6 C29.34 4.68 28.68 3.36 28 2 C27.22285645 2.01047363 26.44571289 2.02094727 25.64501953 2.03173828 C22.138379 2.07320282 18.63178994 2.09929578 15.125 2.125 C13.90167969 2.14175781 12.67835937 2.15851563 11.41796875 2.17578125 C9.66806641 2.18544922 9.66806641 2.18544922 7.8828125 2.1953125 C6.80402832 2.20578613 5.72524414 2.21625977 4.61376953 2.22705078 C2 2 2 2 0 0 Z " fill="#444445" transform="translate(78,120)"/>
<path d="M0 0 C5.61 0 11.22 0 17 0 C17 1.32 17 2.64 17 4 C12.05 4 7.1 4 2 4 C2 3.01 2 2.02 2 1 C1.34 0.67 0.68 0.34 0 0 Z " fill="#8E8C8D" transform="translate(177,144)"/>
<path d="M0 0 C1.98 0 3.96 0 6 0 C6 0.33 6 0.66 6 1 C4.35 1 2.7 1 1 1 C1 1.66 1 2.32 1 3 C3.97 3 6.94 3 10 3 C10.33 4.65 10.66 6.3 11 8 C10.67 7.01 10.34 6.02 10 5 C8.35 5 6.7 5 5 5 C4.34 8.3 3.68 11.6 3 15 C2.67 15 2.34 15 2 15 C2 13.02 2 11.04 2 9 C1.01 9 0.02 9 -1 9 C-1.33 10.32 -1.66 11.64 -2 13 C-2 10.69 -2 8.38 -2 6 C-1.34 6 -0.68 6 0 6 C0 4.02 0 2.04 0 0 Z " fill="#626160" transform="translate(49,104)"/>
<path d="M0 0 C14.52 0 29.04 0 44 0 C44.495 1.485 44.495 1.485 45 3 C44.19804199 2.84152588 43.39608398 2.68305176 42.56982422 2.51977539 C38.32312591 1.90144543 34.16818789 1.77071024 29.8828125 1.68359375 C29.02565643 1.66281265 28.16850037 1.64203156 27.28536987 1.62062073 C24.56532286 1.55558739 21.84518483 1.49645659 19.125 1.4375 C17.27342834 1.39427076 15.42186566 1.3506551 13.5703125 1.30664062 C9.04696669 1.19995379 4.52352993 1.09855806 0 1 C0 0.67 0 0.34 0 0 Z " fill="#444444" transform="translate(174,71)"/>
<path d="M0 0 C0.66 1.32 1.32 2.64 2 4 C1.67 4.33 1.34 4.66 1 5 C7.93 5.33 14.86 5.66 22 6 C21.01 6.495 21.01 6.495 20 7 C20 7.66 20 8.32 20 9 C19.34 8.67 18.68 8.34 18 8 C11.82576573 7.55618612 3.62795801 7.186021 -2 10 C-1.125 2.25 -1.125 2.25 0 0 Z " fill="#646361" transform="translate(50,130)"/>
<path d="M0 0 C1.46594968 4.39784905 0.47876046 6.94301361 -1.41015625 11.11328125 C-1.95542969 12.16902344 -2.50070313 13.22476563 -3.0625 14.3125 C-3.61035156 15.38113281 -4.15820312 16.44976562 -4.72265625 17.55078125 C-5.14417969 18.35902344 -5.56570312 19.16726562 -6 20 C-7.30137039 16.09588882 -6.38226867 14.31769124 -5.125 10.4375 C-4.75632813 9.28121094 -4.38765625 8.12492187 -4.0078125 6.93359375 C-3 4 -3 4 -2 2 C-1.34 2 -0.68 2 0 2 C0 1.34 0 0.68 0 0 Z " fill="#7C7C7C" transform="translate(60,78)"/>
<path d="M0 0 C1.5 1.375 1.5 1.375 3 3 C3 3.66 3 4.32 3 5 C4.65 5.33 6.3 5.66 8 6 C7.67 6.99 7.34 7.98 7 9 C1.62694301 9.44041451 1.62694301 9.44041451 -1 9 C-3 6.5 -3 6.5 -4 4 C-3.01 4 -2.02 4 -1 4 C-0.67 2.68 -0.34 1.36 0 0 Z " fill="#3F3F3E" transform="translate(126,160)"/>
<path d="M0 0 C0.66 0 1.32 0 2 0 C6.10415132 4.82841331 6.41733821 7.94859592 6 14 C4.35 13.67 2.7 13.34 1 13 C1.020625 11.783125 1.04125 10.56625 1.0625 9.3125 C1.06824116 6.08022678 0.78766315 3.15065259 0 0 Z " fill="#484545" transform="translate(169,216)"/>
<path d="M0 0 C1.32 0 2.64 0 4 0 C4.38218767 1.65614657 4.71395102 3.32457024 5 5 C4.67 5.33 4.34 5.66 4 6 C2.35 6 0.7 6 -1 6 C-1 9.3 -1 12.6 -1 16 C-1.33 16 -1.66 16 -2 16 C-2.05384521 13.70858714 -2.09272087 11.41681812 -2.125 9.125 C-2.14820313 7.84882813 -2.17140625 6.57265625 -2.1953125 5.2578125 C-2 2 -2 2 0 0 Z " fill="#979795" transform="translate(52,195)"/>
<path d="M0 0 C2 1 2 1 3.125 4.25 C3.85463482 7.37700635 4.19234975 9.82622905 4 13 C4.99 13 5.98 13 7 13 C7.33 14.32 7.66 15.64 8 17 C7.34 17.33 6.68 17.66 6 18 C6 17.01 6 16.02 6 15 C5.34 15 4.68 15 4 15 C3.67 15.99 3.34 16.98 3 18 C2 13 2 13 1.5625 10.625 C0.86447305 7.3675409 -0.0602663 4.19509458 -1 1 C-0.67 0.67 -0.34 0.34 0 0 Z " fill="#565453" transform="translate(165,201)"/>
<path d="M0 0 C1.32 0 2.64 0 4 0 C4 2.64 4 5.28 4 8 C1.69 8.66 -0.62 9.32 -3 10 C-2.01 6.7 -1.02 3.4 0 0 Z " fill="#6A6868" transform="translate(54,120)"/>
<path d="M0 0 C2.43757413 -0.02698422 4.87484915 -0.04683099 7.3125 -0.0625 C8.00279297 -0.07087891 8.69308594 -0.07925781 9.40429688 -0.08789062 C12.5483025 -0.10307906 14.99420019 -0.00193327 18 1 C18 1.99 18 2.98 18 4 C15.36 4 12.72 4 10 4 C9.67 3.34 9.34 2.68 9 2 C6.87423218 1.53348793 6.87423218 1.53348793 4.4375 1.375 C3.61121094 1.30023438 2.78492188 1.22546875 1.93359375 1.1484375 C1.29550781 1.09945312 0.65742188 1.05046875 0 1 C0 0.67 0 0.34 0 0 Z " fill="#454344" transform="translate(212,120)"/>
<path d="M0 0 C2.70213212 3.15627197 3.72852136 5.91384889 4.6875 9.9375 C4.93886719 10.95714844 5.19023437 11.97679687 5.44921875 13.02734375 C5.95770635 15.77173428 6.10755868 18.21883996 6 21 C4 18 4 18 3 14.9375 C2.21378109 11.91944266 2.21378109 11.91944266 0 10 C-0.76679965 6.16600177 -1.24674659 3.74023976 0 0 Z " fill="#585858" transform="translate(197,198)"/>
<path d="M0 0 C0.33 1.32 0.66 2.64 1 4 C-2.41139003 5.09651823 -5.20655581 4.94215473 -8.75 4.5625 C-9.73484375 4.46066406 -10.7196875 4.35882813 -11.734375 4.25390625 C-12.48203125 4.17011719 -13.2296875 4.08632812 -14 4 C-13.34 3.01 -12.68 2.02 -12 1 C-9.94140625 0.671875 -9.94140625 0.671875 -7.5625 0.75 C-6.38880859 0.77320312 -6.38880859 0.77320312 -5.19140625 0.796875 C-3 1 -3 1 0 2 C0 1.34 0 0.68 0 0 Z " fill="#302F2D" transform="translate(208,127)"/>
<path d="M0 0 C6.6 0 13.2 0 20 0 C20 0.99 20 1.98 20 3 C13.07 2.67 6.14 2.34 -1 2 C-0.67 1.34 -0.34 0.68 0 0 Z " fill="#3A3939" transform="translate(68,109)"/>
<path d="M0 0 C5.94 0 11.88 0 18 0 C18.33 0.99 18.66 1.98 19 3 C12.4 3 5.8 3 -1 3 C-0.67 2.01 -0.34 1.02 0 0 Z " fill="#65494A" transform="translate(95,108)"/>
<path d="M0 0 C0.99 0.66 1.98 1.32 3 2 C3 3.32 3 4.64 3 6 C5.64 6.33 8.28 6.66 11 7 C11 7.66 11 8.32 11 9 C5.22192976 9.2358396 0.48675196 8.86783046 -5 7 C-3.68 6.67 -2.36 6.34 -1 6 C-0.67 4.02 -0.34 2.04 0 0 Z " fill="#5F5F5F" transform="translate(57,204)"/>
<path d="M0 0 C6.27 0 12.54 0 19 0 C19 0.66 19 1.32 19 2 C12.41816638 2.8931507 6.57849492 2.95494281 0 2 C0 1.34 0 0.68 0 0 Z " fill="#A5A5A7" transform="translate(174,109)"/>
<path d="M0 0 C0.66 0.33 1.32 0.66 2 1 C2 1.99 2 2.98 2 4 C2.99 4 3.98 4 5 4 C5 4.66 5 5.32 5 6 C3.58344207 6.0272415 2.16672955 6.04650467 0.75 6.0625 C-0.43335938 6.07990234 -0.43335938 6.07990234 -1.640625 6.09765625 C-3.90691002 6.00385306 -5.8288895 5.63241063 -8 5 C-7.67 4.01 -7.34 3.02 -7 2 C-5.02 2 -3.04 2 -1 2 C-0.67 1.34 -0.34 0.68 0 0 Z " fill="#61605E" transform="translate(134,166)"/>
<path d="M0 0 C0.33 0 0.66 0 1 0 C1.49506451 6.71087447 1.29302091 12.50091301 -3 18 C-3.99 18.33 -4.98 18.66 -6 19 C-6 19.66 -6 20.32 -6 21 C-6.66 20.67 -7.32 20.34 -8 20 C-7.67 19.34 -7.34 18.68 -7 18 C-6.34 18 -5.68 18 -5 18 C-4.71125 17.071875 -4.4225 16.14375 -4.125 15.1875 C-3 12 -3 12 -1 9 C-0.54605448 6.72087062 -0.54605448 6.72087062 -0.375 4.3125 C-0.30023438 3.50425781 -0.22546875 2.69601563 -0.1484375 1.86328125 C-0.09945312 1.24839844 -0.05046875 0.63351563 0 0 Z " fill="#5D5C5C" transform="translate(178,225)"/>
<path d="M0 0 C3.3 0 6.6 0 10 0 C6.77085357 3.22914643 3.97169202 4.82681003 0 7 C0 4.69 0 2.38 0 0 Z " fill="#6E6D6B" transform="translate(59,137)"/>
<path d="M0 0 C3.96 0 7.92 0 12 0 C12 0.99 12 1.98 12 3 C8.04 3 4.08 3 0 3 C0 2.01 0 1.02 0 0 Z " fill="#7E7C7D" transform="translate(129,147)"/>
<path d="M0 0 C0.0825 0.94875 0.165 1.8975 0.25 2.875 C0.4975 3.90625 0.745 4.9375 1 6 C2.32 6.66 3.64 7.32 5 8 C1.7 8 -1.6 8 -5 8 C-5 5.69 -5 3.38 -5 1 C-1.125 0 -1.125 0 0 0 Z " fill="#5B5A57" transform="translate(53,112)"/>
<path d="M0 0 C1.22589844 0.15275391 1.22589844 0.15275391 2.4765625 0.30859375 C3.41628906 0.43427734 3.41628906 0.43427734 4.375 0.5625 C4.375 1.2225 4.375 1.8825 4.375 2.5625 C3.715 2.5625 3.055 2.5625 2.375 2.5625 C2.375 3.2225 2.375 3.8825 2.375 4.5625 C0.395 4.5625 -1.585 4.5625 -3.625 4.5625 C-3.625 3.9025 -3.625 3.2425 -3.625 2.5625 C-4.615 2.5625 -5.605 2.5625 -6.625 2.5625 C-6.625 1.9025 -6.625 1.2425 -6.625 0.5625 C-4.10446405 -0.69776798 -2.7707902 -0.35624445 0 0 Z " fill="#595854" transform="translate(236.625,144.4375)"/>
<path d="M0 0 C-0.33 1.32 -0.66 2.64 -1 4 C-0.34 4 0.32 4 1 4 C4.125 10.625 4.125 10.625 3 14 C3 13.34 3 12.68 3 12 C2.34 12 1.68 12 1 12 C0.82984375 11.37351563 0.6596875 10.74703125 0.484375 10.1015625 C0.24203125 9.28429687 -0.0003125 8.46703125 -0.25 7.625 C-0.48203125 6.81289062 -0.7140625 6.00078125 -0.953125 5.1640625 C-2.2214892 2.54214546 -3.32423308 2.00617682 -6 1 C-3.92446352 0.4465236 -2.15634036 0 0 0 Z " fill="#515152" transform="translate(124,148)"/>
<path d="M0 0 C1.32 0 2.64 0 4 0 C3.77139942 1.46184058 3.51629608 2.91955419 3.25 4.375 C3.04117188 5.59316406 3.04117188 5.59316406 2.828125 6.8359375 C2 9 2 9 -0.078125 10.2890625 C-1.02945313 10.64097656 -1.02945313 10.64097656 -2 11 C-1.855625 10.37351562 -1.71125 9.74703125 -1.5625 9.1015625 C-1.376875 8.28429687 -1.19125 7.46703125 -1 6.625 C-0.814375 5.81289062 -0.62875 5.00078125 -0.4375 4.1640625 C0.06605239 2.04125049 0.06605239 2.04125049 0 0 Z " fill="#A1A1A1" transform="translate(69,83)"/>
<path d="M0 0 C3.3 0 6.6 0 10 0 C10 0.33 10 0.66 10 1 C9.2575 1.04125 8.515 1.0825 7.75 1.125 C3.9176007 2.34439978 3.05734223 4.66568673 1 8 C0.34 8 -0.32 8 -1 8 C-0.67 5.36 -0.34 2.72 0 0 Z " fill="#383638" transform="translate(62,120)"/>
<path d="M0 0 C2.475 0.495 2.475 0.495 5 1 C6.125 4.75 6.125 4.75 5 7 C2.525 6.01 2.525 6.01 0 5 C0 3.35 0 1.7 0 0 Z " fill="#474747" transform="translate(154,192)"/>
<path d="M0 0 C2.02196167 2.02196167 2.67551358 3.25864486 3.6875 5.875 C3.95949219 6.55304688 4.23148438 7.23109375 4.51171875 7.9296875 C5.07336741 10.31107782 4.76694846 11.70430191 4 14 C2.5 12.8125 2.5 12.8125 1 11 C0.8125 8.3125 0.8125 8.3125 1 6 C0.34 6 -0.32 6 -1 6 C-0.67 4.02 -0.34 2.04 0 0 Z " fill="#686869" transform="translate(192,184)"/>
<path d="M0 0 C-1.32 0.33 -2.64 0.66 -4 1 C-4.33 4.63 -4.66 8.26 -5 12 C-5.33 12 -5.66 12 -6 12 C-6 9.69 -6 7.38 -6 5 C-6.99 5 -7.98 5 -9 5 C-9 4.01 -9 3.02 -9 2 C-5.86501708 0.14223235 -3.62528568 -0.20140476 0 0 Z " fill="#7C7B79" transform="translate(81,150)"/>
<path d="M0 0 C1.134375 0.020625 2.26875 0.04125 3.4375 0.0625 C2.7775 0.7225 2.1175 1.3825 1.4375 2.0625 C2.0975 2.3925 2.7575 2.7225 3.4375 3.0625 C3.4375 3.7225 3.4375 4.3825 3.4375 5.0625 C1.1275 5.0625 -1.1825 5.0625 -3.5625 5.0625 C-4.125 3.125 -4.125 3.125 -4.5625 1.0625 C-3.5625 0.0625 -3.5625 0.0625 0 0 Z " fill="#5C5A58" transform="translate(225.5625,144.9375)"/>
<path d="M0 0 C0.33 0.66 0.66 1.32 1 2 C1.99 2 2.98 2 4 2 C4 2.66 4 3.32 4 4 C5.98 4 7.96 4 10 4 C10 4.33 10 4.66 10 5 C6.7 5 3.4 5 0 5 C0 4.34 0 3.68 0 3 C-1.98 3 -3.96 3 -6 3 C-4 2 -2 1 0 0 Z " fill="#6E6D6A" transform="translate(229,145)"/>
<path d="M0 0 C1.65 0 3.3 0 5 0 C4.67 1.65 4.34 3.3 4 5 C2.35 5 0.7 5 -1 5 C-0.67 3.35 -0.34 1.7 0 0 Z " fill="#2F2E2C" transform="translate(68,160)"/>
<path d="M0 0 C2.18975773 3.28463659 2.99806563 6.20696275 4 10 C2.35 10 0.7 10 -1 10 C-0.67 6.7 -0.34 3.4 0 0 Z " fill="#6B6B6D" transform="translate(184,163)"/>
<path d="M0 0 C0.66 1.32 1.32 2.64 2 4 C-0.87164566 6.70272533 -2.30991841 7.94791837 -6.3125 8.25 C-7.199375 8.1675 -8.08625 8.085 -9 8 C-8.360625 7.71125 -7.72125 7.4225 -7.0625 7.125 C-4.84793921 6.17176549 -4.84793921 6.17176549 -4 4 C-3.01 3.67 -2.02 3.34 -1 3 C-0.67 2.01 -0.34 1.02 0 0 Z " fill="#3D3C3A" transform="translate(209,128)"/>
<path d="M0 0 C-0.33 1.65 -0.66 3.3 -1 5 C-2.65 5 -4.3 5 -6 5 C-6 3.35 -6 1.7 -6 0 C-3 -1 -3 -1 0 0 Z " fill="#5F5D5E" transform="translate(114,121)"/>
<path d="M0 0 C0.99 0.33 1.98 0.66 3 1 C3 1.99 3 2.98 3 4 C2.34 4 1.68 4 1 4 C1.33 6.31 1.66 8.62 2 11 C1.01 10.67 0.02 10.34 -1 10 C-1.02689216 8.52093108 -1.04634621 7.04172517 -1.0625 5.5625 C-1.07410156 4.73878906 -1.08570313 3.91507812 -1.09765625 3.06640625 C-1 1 -1 1 0 0 Z " fill="#696967" transform="translate(54,108)"/>
<path d="M0 0 C0.99 0 1.98 0 3 0 C2.67 1.65 2.34 3.3 2 5 C0.35 5 -1.3 5 -3 5 C-3 4.34 -3 3.68 -3 3 C-2.34 3 -1.68 3 -1 3 C-0.67 2.01 -0.34 1.02 0 0 Z " fill="#464645" transform="translate(73,206)"/>
<path d="M0 0 C0 0.33 0 0.66 0 1 C-5.57710648 2.06795656 -10.39436958 1.82622671 -16 1 C-16 0.67 -16 0.34 -16 0 C-10.03241883 -2.28545662 -6.07806891 -1.79172099 0 0 Z " fill="#7A7776" transform="translate(149,172)"/>
<path d="M0 0 C0.33 0.99 0.66 1.98 1 3 C-0.9375 5.6875 -0.9375 5.6875 -3 8 C-3.99 7.67 -4.98 7.34 -6 7 C-4.625 5 -4.625 5 -3 3 C-2.34 3 -1.68 3 -1 3 C-0.67 2.01 -0.34 1.02 0 0 Z " fill="#39393C" transform="translate(177,151)"/>
<path d="M0 0 C3.63 0 7.26 0 11 0 C9.515 1.98 9.515 1.98 8 4 C5.36 3.01 2.72 2.02 0 1 C0 0.67 0 0.34 0 0 Z " fill="#666465" transform="translate(130,150)"/>
<path d="M0 0 C0.66 0 1.32 0 2 0 C2 0.66 2 1.32 2 2 C2.66 2.33 3.32 2.66 4 3 C-0.625 6 -0.625 6 -4 6 C-4 5.34 -4 4.68 -4 4 C-3.34 4 -2.68 4 -2 4 C-2 3.34 -2 2.68 -2 2 C-1.34 2 -0.68 2 0 2 C0 1.34 0 0.68 0 0 Z " fill="#6A6A6A" transform="translate(243,143)"/>
<path d="M0 0 C0.33 0 0.66 0 1 0 C1.61528766 5.07612318 -0.38341651 7.82982006 -3 12 C-4.31223496 8.06329512 -3.24296256 5.87511856 -2 2 C-1.34 2 -0.68 2 0 2 C0 1.34 0 0.68 0 0 Z " fill="#656565" transform="translate(57,86)"/>
<path d="M0 0 C1.99097846 2.98646769 2.94124926 5.59687262 4 9 C0 9 0 9 -2 8 C-1.67 7.67 -1.34 7.34 -1 7 C-0.63239269 4.67182036 -0.29758419 2.3381615 0 0 Z " fill="#6E6F70" transform="translate(180,154)"/>
<path d="M0 0 C2.50298434 2.93828597 3.46930939 5.17902761 4 9 C1 8 1 8 -1 6 C-0.625 2.875 -0.625 2.875 0 0 Z " fill="#707072" transform="translate(197,198)"/>
<path d="M0 0 C2.18975773 3.28463659 2.99806563 6.20696275 4 10 C1.525 9.01 1.525 9.01 -1 8 C-0.67 5.36 -0.34 2.72 0 0 Z " fill="#707173" transform="translate(188,173)"/>
<path d="M0 0 C1.32 0 2.64 0 4 0 C4 1.65 4 3.3 4 5 C2.68 5 1.36 5 0 5 C0 3.35 0 1.7 0 0 Z " fill="#646260" transform="translate(165,121)"/>
<path d="M0 0 C0.99 0.33 1.98 0.66 3 1 C2.60196439 3.88575819 2.20990931 4.82189513 -0.0625 6.75 C-0.701875 7.1625 -1.34125 7.575 -2 8 C-1.47731534 5.23723823 -0.89130413 2.6739124 0 0 Z " fill="#8A8888" transform="translate(54,120)"/>
<path d="M0 0 C0 0.99 0 1.98 0 3 C-5.28 2.67 -10.56 2.34 -16 2 C-16 1.67 -16 1.34 -16 1 C-13.70839646 0.83246763 -11.41671509 0.66599948 -9.125 0.5 C-7.84882812 0.4071875 -6.57265625 0.314375 -5.2578125 0.21875 C-3.50763316 0.10123196 -1.75412035 0 0 0 Z " fill="#434443" transform="translate(88,109)"/>
<path d="M0 0 C1.32 0.33 2.64 0.66 4 1 C4 2.32 4 3.64 4 5 C2.68 5 1.36 5 0 5 C0 3.35 0 1.7 0 0 Z " fill="#2B2B2A" transform="translate(60,109)"/>
<path d="M0 0 C0 0.66 0 1.32 0 2 C-2.64 2 -5.28 2 -8 2 C-8 1.34 -8 0.68 -8 0 C-4.71023192 -1.09658936 -3.28696233 -0.79953138 0 0 Z " fill="#101010" transform="translate(73,73)"/>
<path d="M0 0 C0.33 0 0.66 0 1 0 C1.28571429 8.57142857 1.28571429 8.57142857 -1 12 C-2.11658501 7.31034294 -1.80619523 4.46236469 0 0 Z " fill="#969493" transform="translate(205,220)"/>
<path d="M0 0 C2.97 0.495 2.97 0.495 6 1 C6 1.66 6 2.32 6 3 C4.35 3.33 2.7 3.66 1 4 C0.67 2.68 0.34 1.36 0 0 Z " fill="#525156" transform="translate(145,161)"/>
<path d="M0 0 C0.99 0 1.98 0 3 0 C3 1.98 3 3.96 3 6 C2.01 6 1.02 6 0 6 C0 4.02 0 2.04 0 0 Z " fill="#494844" transform="translate(48,113)"/>
<path d="M0 0 C0 3.20395416 -0.74335022 5.09399739 -2 8 C-2.99 8 -3.98 8 -5 8 C-3.62845496 5.04590299 -2.01136276 2.55991624 0 0 Z " fill="#4B4A4A" transform="translate(175,235)"/>
<path d="M0 0 C0.99 0.33 1.98 0.66 3 1 C3 2.65 3 4.3 3 6 C2.01 6.495 2.01 6.495 1 7 C0.67 4.69 0.34 2.38 0 0 Z " fill="#4E4F51" transform="translate(189,182)"/>
<path d="M0 0 C0.33 0.99 0.66 1.98 1 3 C0.34 3 -0.32 3 -1 3 C-1 3.66 -1 4.32 -1 5 C-2.98 5.99 -2.98 5.99 -5 7 C-3.75023244 3.34683329 -3.32901247 2.21934164 0 0 Z " fill="#3A3A3C" transform="translate(180,163)"/>
<path d="M0 0 C1.32 0 2.64 0 4 0 C4 1.32 4 2.64 4 4 C2.02 4 0.04 4 -2 4 C-1.34 2.68 -0.68 1.36 0 0 Z " fill="#93908F" transform="translate(190,144)"/>
</svg>
